<svg id="Layer_1" data-name="Layer 1" xmlns="http://www.w3.org/2000/svg" viewBox="0 0 12.18 28"><defs><style>.cls-1{fill:#174762;}</style></defs><path class="cls-1" d="M7.79,4.62A1.73,1.73,0,1,0,6.06,6.35,1.74,1.74,0,0,0,7.79,4.62Zm-3.14,0A1.42,1.42,0,1,1,6.06,6,1.41,1.41,0,0,1,4.65,4.62Z"/><path class="cls-1" d="M11.57,22.89H6.67v-2.6h2.7a.61.61,0,0,0,.61-.61.61.61,0,0,0-.61-.61H6.67v-7a6.06,6.06,0,1,0-1.22,0V27.4a.61.61,0,0,0,.61.6.6.6,0,0,0,.61-.6V24.11h4.9a.61.61,0,0,0,.61-.61A.61.61,0,0,0,11.57,22.89ZM1.25,6.06a4.82,4.82,0,1,1,4.81,4.82A4.82,4.82,0,0,1,1.25,6.06Z"/></svg>