<svg id="Layer_1" data-name="Layer 1" xmlns="http://www.w3.org/2000/svg" viewBox="0 0 27.92 32"><defs><style>.cls-1{fill:#174762;}</style></defs><path class="cls-1" d="M25.29,32.15H2.64a2.58,2.58,0,0,1-2.62-3l.32-2.47a9.61,9.61,0,0,1,9.52-8.38h8.21a9.59,9.59,0,0,1,9.51,8.38l.32,2.47a2.57,2.57,0,0,1-2.61,3ZM9.86,19.31A8.65,8.65,0,0,0,1.3,26.84L1,29.31H1a1.68,1.68,0,0,0,.38,1.33,1.66,1.66,0,0,0,1.27.54H25.29a1.62,1.62,0,0,0,1.26-.54,1.64,1.64,0,0,0,.38-1.33l-.31-2.47a8.64,8.64,0,0,0-8.55-7.53ZM.51,29.25h0Z"/><path class="cls-1" d="M14,16.26a8.13,8.13,0,1,1,8.13-8.13A8.14,8.14,0,0,1,14,16.26ZM14,1a7.16,7.16,0,1,0,7.16,7.16A7.16,7.16,0,0,0,14,1Z"/></svg>